<?xml version="1.0" encoding="UTF-8"?>
<svg id="Capa_2" data-name="Capa 2" xmlns="http://www.w3.org/2000/svg" viewBox="0 0 246.98 98.2">
  <defs>
    <style>
      .cls-1 {
        fill: #f7f1e5;
      }
    </style>
  </defs>
  <g id="Capa_1-2" data-name="Capa 1">
    <g>
      <path class="cls-1" d="M194.3,65.4s.02,0,.03,0c-.06-.01-.06,0-.03,0Z"/>
      <path class="cls-1" d="M194.38,65.38s-.04,0-.05.01c0,0,0,0,0,0,.02,0,.03,0,.05-.02Z"/>
      <path class="cls-1" d="M194.35,65.4s-.01,0-.02,0c0,0-.02,0-.03,0,.01,0,.03,0,.05,0Z"/>
      <path class="cls-1" d="M192.92,66.12s.02-.01,0,0h0Z"/>
      <path class="cls-1" d="M21.06,81.22l-.32-.11v-.07l.21-.07c.14-.27.07-.74,0-1.02.2-.67,0-1.48,0-2.18.03-.5.01-1.01,0-1.51-.6-.36-1.61-.04-2.25-.14l-.07.07c-.78-.07-1.52.55-2.29.67-.52.3-1.16.99-1.58,1.16-.09.14-.31.41-.42.53h-.07c-.52.49-.94,1.47-.88,2.18.06.27.19.67.18.95.12.3.37.63.39.95.48.53,1.06,1.01,1.69,1.34.06,0,.24-.01.28.04l.04.11.25.18.14-.07c.07.03.36.1.39.18.36.04.77.05,1.13.07.45-.03.9-.19,1.34-.28l.25.11.11-.04.11-.28c.22-.06.44-.32.67-.35l.04-.07c.22-.12.46-.32.63-.49.03-.44.01-.9.11-1.34l-.07-.18.07-.21-.04-.11Z"/>
      <path class="cls-1" d="M111.93,45.91c-.32-.12-.89-.48-1.2-.39-.28.12-.69.21-.88.46-.29.1-.55.34-.42.67l.07.21.14.04.04.18-.07.11.04.11-.07.07c.05.06.12.21.14.28l.14.11c.19.9,1.39,1.33,2.08.7.42-.12.74-.49,1.09-.74.18-.2.32-.49.53-.67v-.14c-.24-.12-.42-.44-.7-.46-.2-.28-.66-.29-.92-.53Z"/>
      <path class="cls-1" d="M198.81,64.11c.14,0,.09-.02,0,0h0Z"/>
      <path class="cls-1" d="M35.49,75.55l.14.11.11-.04.04-.11c.38-.05.78-.23,1.16-.25.24-.14.77-.17,1.06-.18.27-.13.63-.03.84-.28,1.08-.25,2.24-.34,3.27-.74l.04-.14c-.11-.18-.32-.34-.53-.39-.14-.19-.42-.35-.63-.46v-.25l-.07-.04-.14.04-.18-.07-.11-.18h-.18c-.16-.13-.44-.21-.56-.39-.16-.1-.42-.15-.56-.28-.36.01-.81-.11-1.16,0-.54-.04-1.16.16-1.62.46-.21.21-.57.27-.74.53-.42.33-.79.77-1.06,1.23-.09.16-.32.26-.35.46l-.07.04c-.15.33-.13.53-.56.92-.08.22-.19.5-.28.7l.67-.25c.51-.08.97-.43,1.48-.46Z"/>
      <path class="cls-1" d="M43.36,45.91c-.32-.12-.89-.48-1.2-.39-.28.12-.69.21-.88.46-.29.1-.55.34-.42.67l.07.21.14.04.04.18-.07.11.04.11-.07.07c.05.06.12.21.14.28l.14.11c.19.9,1.39,1.33,2.08.7.42-.12.74-.49,1.09-.74.18-.2.32-.49.53-.67v-.14c-.24-.12-.42-.44-.7-.46-.2-.28-.66-.29-.92-.53Z"/>
      <path class="cls-1" d="M80.67,46.86l.14.04.04.18-.07.11.04.11-.07.07c.05.06.12.21.14.28l.14.11c.19.9,1.39,1.33,2.08.7.42-.12.74-.49,1.09-.74.18-.2.32-.49.53-.67v-.14c-.24-.12-.42-.44-.7-.46-.2-.28-.66-.29-.92-.53-.32-.12-.89-.48-1.2-.39-.28.12-.69.21-.88.46-.29.1-.55.34-.42.67l.07.21Z"/>
      <path class="cls-1" d="M189.13,46.86l.14.04.04.18-.07.11.04.11-.07.07c.05.06.12.21.14.28l.14.11c.19.9,1.39,1.33,2.08.7.42-.12.74-.49,1.09-.74.18-.2.32-.49.53-.67v-.14c-.24-.12-.42-.44-.7-.46-.2-.28-.66-.29-.92-.53-.32-.12-.89-.48-1.2-.39-.28.12-.69.21-.88.46-.29.1-.55.34-.42.67l.07.21Z"/>
      <path class="cls-1" d="M216.4,77.27c-.14-.11-.31-.21-.49-.25-.09-.14.33-.37.18-.6-.09-.22-.16-.42-.27-.61.09-.23-.08-.76-.29-1.01-.28-.37-.81-.81-1.04-1.21-.31-.05-.45-.33-.72-.53-.43-.24-.79-.69-1.24-.77-.29.16-.59.59-.91.8-1.48,2.49-1.36,5.51-1.33,8.32.14.54.19,1.05.5,1.51.09.14.21.11.3.13.3.51,1.58.99,2.21.96h.1c.24-.01.73-.02.94-.22.4.18,1.01-.23,1.32-.46.23-.17.08-.35.26-.61,1.08-1.35.9-3.27.58-4.89-.05-.31.16-.36-.11-.57Z"/>
      <path class="cls-1" d="M245.96,77.33l-.03-.17c-.48-3.85-.02-7.77-2.53-11.06-4.29-6.64-13.93-9.83-21.42-6.65-1.71.64-3.4.62-5.13.18-2.91-.75-5.91-.73-8.84.29-2.21.83-5.57,1.4-2.41-1.53,3.34-2.71,5.22-7.29,3.97-11.49-.42-1.46-1.05-2.86-1.38-4.34-.53-2.11-.46-4.22-1.09-6.47-1.11-3.95-3.29-7.89-6.47-10.4-3.85-3.05-8.4-3.84-13.14-3.19-1.83.32-3.73.73-5.59.58-2-.16-3.76-1.18-5.62-1.83-2.89-1.07-6.2-.98-9.12.21-1.57.61-3.17,1.18-4.85,1.23-3.17-.27-6.22.59-9.19,1.61-1.13.29-2.27.16-3.22-.58-.67-.49-1.29-1.19-1.88-1.84-2.4-2.7-5.99-4.61-9.48-4.65-3.09.25-6.17.19-8.99-1.25-4.19-1.57-8.93-1.24-12.33,1.99-1.7,1.78-3.2,4.12-5.9,4.22-3.99,0-8.45,1.3-11.27,4.06-1.46,1.29-2.83,4.27-5.01,2.26-2.83-2.95-6.32-5.53-10.26-5.99-1.67-.28-3.49-.25-4.96-1.2-1.07-.66-2.01-1.8-2.95-2.7-2.71-2.52-5.82-3.54-9.31-3.55-6.04-.13-10.87,5.42-10.77,11.29-.02,1.6.15,3.06-.31,3.12-.27.07-.77-.33-1.42-1-1.17-1.28-2.6-2.75-3.92-3.58-6.05-4.06-15.47-3.51-20.58,2.2-2.49,2.67-4.1,6.9-3.29,10.64.32,1.57.75,3.02.68,4.64-.09,1.89-.49,4.13-.09,6.12.08.98.66,2.09.51,3.03-.1.39-.49.45-1.12.29-.91-.25-1.9-.69-2.88-.89-4.6-.87-9.86.91-12.23,5.49-1.61,2.47-1.29,5.61-2.48,8.11-1.19,1.91-3.53,3.06-5.05,4.75-2.55,2.54-4.05,5.32-4.44,9.21-1.52,10.93,8.25,20.11,18.95,19,3.81.01,7.04-2.72,10.8-2.33,1.91.27,3.78.91,5.73.99,4.76.36,9.91,1.52,14.61-.24,2.66-.93,4.43-2.13,6.15-3.91,1.12-1.2,2.31-2.04,3.63-.71,3.81,4.6,10.33,6.55,16.01,6.3,2.89-.2,5.65-1.12,8.56-.74,3.76.04,7.39,1.55,11.13,1.32,1.83-.18,3.64-.69,5.49-.67,5.81.7,11.38.08,16.04-3.99,1.9-1.72,3.5-1.9,5.38-.15,2.42,2.02,5.3,3.49,8.44,4.12,3.04.61,6.27.26,9.05-.81,1.64-.64,3.37-1.11,5.14-.76,3.24.97,6.57,1.05,9.91,1.7,3.6,1.08,7.3.54,10.71-.93,4.54-1.37,8.67.21,13.48.25,3.75-.47,7.31.36,11.01.61,5.11-.31,9.87-3.12,14.94-2.02,4.33,1.73,8.7,2.52,13.26,1.18,1.66-.43,3.34-.68,5.02-.26,12.48,5.05,27.46-5.26,22.36-19.1ZM24.93,77.72c-.16.06-.42.04-.5.13-.2,1.5.09,3.32-.02,4.87v.11c-.03.41.06,1.18-.07,1.62-.1.23-.33.26-.45.45-.88,1.28-2.49,1.87-3.91,2.34-2.54.63-5.51.25-7.49-1.55-1.64-1.03-2.77-3.64-2.31-5.54-.36-1.1.14-1.94.64-2.88,1.54-1.84,3.43-3.34,5.78-4.01.84-.12,1.76-.45,2.59-.46.56-.08,1.02.19,1.46-.11,0-3.02-.39-6.04-.18-9.08-.04-.86-.04-2,.51-2.69.43-.3,1.08-.32,1.61-.27.31.04.44.4.56.58.12.22.67.06.88.36.06,1.43-.26,3.02-.25,4.5.02.59.08,1.23.04,1.83-.02.24.21.26.2.5,0,.17-.17.27-.24.39-.05.12.09.28.12.47.1,1.46.17,2.98.23,4.44.05.41.31.68.67.86.47.41,1.1.97,1.15,1.62.12.66-.36,1.36-1.02,1.53ZM50,83.33c-.07.75-.14,1.49-.87,1.78-1.15,1.48-3.46,1.78-5.22,1.8h-.13c-1.09.01-2.27-.54-3.32-.85-1.51-.35-3.13.17-4.68.04-2.36-.27-4.29-1.7-6.05-3.11-.22-.12-.29-.15-.32-.34-.23-.57-.54-1.19-.55-1.9-.05-.37.11-.79.06-1.08-.18-.54-.99-.76-.79-1.48.09-.76,1.07-.75,1.5-1.22.25-.55.38-1.22.67-1.78.22-.36.59-.81.68-1.25.02-.21-.06-.45-.02-.53.06-.09.35.06.5-.21.29-.57.74-1.04,1.09-1.5,1.21-1.56,3.09-2.76,5.01-2.94,2.14-.37,4.01.88,5.59,2.06,1.08.5,1.97,1.55,2.75,2.3.27.34.58.69.71,1.13.28.84-.1,1.73-.79,2.2-.98.43-2.63.3-3.45,1-.07.02-.15-.15-.34-.15-1.34.36-2.84.47-4.14.99-1.01-.13-2.23.39-3.27.6-.38.05-.56.14-.86.26-.48.24-1.51.22-1.66.91-.02.47.49.89.77,1.17.5.32.87.64,1.42.84.81.5,1.86,1.16,2.8.68.9.24,2.15-.07,3.12,0,1.1.22,2.08.61,3.19.95,1.74.26,3.59-.36,4.85-1.59.26-.23.64-.48.98-.32.5.25.98.94.76,1.54ZM51.63,50.07c-.11.8-1.53.97-2.2.91-.72-.22-1.02-.99-1.59-1.45-.18-.16-.35-.42-.54-.31-.58.49-1.1,1.01-1.82,1.36-1.62,1.12-3.95,1.11-5.64.1-.73-.74-1.4-1.58-1.7-2.58-.14-.2-.27-.22-.2-.45-.06-.5-.47-1.26-.35-1.73l.03-.11c.09-.17.15-.63.32-.86.19-.22.18-.57.34-.83.4-.43,1.02-.62,1.52-.92.84-.39,1.8-.61,2.72-.66.19,0,.32.11.42.19.08.07.21.01.38.04.34.15.72.31,1.08.4.48.18,1.26.92,1.68.86.11-.72.09-1.51.15-2.21-.18-.92-.23-2.12-.54-3.03-.1-.16-.38-.02-.31-.17.05-.1.26-.18.21-.25-.04-.05-.25-.09-.25-.18.24-.58-.12-.91-.46-1.38-.39-.57-1-1.05-1.7-1.1-1.01-.31-2.42-.35-3.05.66-.31.32-.52.91-.88,1.2-.18.18-.36.08-.66.03-.55,0-.99-.49-1.15-.97-.02-.32-.3-.52-.44-.79-.05-.54.22-1.07.61-1.42.57-.63,1.18-1.53,2.02-1.74,1.29-.13,2.73-.72,3.97-.08.17.09.46,0,.73.09,2.82.72,4.26,3.66,4.98,6.27.34,2.44.43,5.05-.11,7.45.09.28.4.5.6.75.71.8,1.68,1.51,2,2.56-.02.13-.12.22-.17.34ZM66.7,26.13c.06-.35.17-.81.53-.9.65-.14,1.01-.29,1.56.18.47.18,1.17.19,1.47.59.04.14.09.3.22.54.19.47.09,1.02.07,1.5.09.57-.03,1.17-.01,1.74.04,1.18.1,2.25.13,3.43.11,1.93.33,3.83.59,5.73.11,2.11.28,4.13.66,6.26.03,1.5.18,2.97.32,4.47,0,.29-.14.53-.2.8-.07.4-.89.85-1.16.65l-.09-.06c-.09-.07-.46-.15-.6-.25-.25-.27-.35-.69-.64-.97-.13-.32-.5-.53-.66-.9-.13-.49-.36-.97-.49-1.45-.07-.74-.05-1.65-.19-2.35-.03-1.22-.28-2.8-.41-4.05.04-.19-.22-.18-.25-.3-.04-.08.15-.07.22-.13,0-.06,0-.19.01-.26-.21-1.98-.29-3.95-.5-5.95-.42-2.5-.02-5.04-.23-7.56-.07-.31-.47-.41-.34-.77ZM76.09,87.55l-.09-.02c-.54-.15-1.38.09-2.01-.07-1.91-.21-3.83-.56-5.39-1.68-.16-.15-.12-.27-.38-.42-.19-.13-.15-.38-.26-.51-.62-.5-.54-1.59-.73-2.34-.13-.66-.05-1.44-.33-2.06-.06-.17.05-.32.07-.45.08-.22-.2-.24-.33-.36-.09-.17.29-.19.25-.44-.03-1.25-.11-2.6-.39-3.76-.13-.15-.44-.1-.68-.13-1-.24-1.96-.55-2.84-1.15-.45-.35-1.01-.56-1.02-1.17.05-.4.42-.67.67-.95.1-.07.31-.08.44-.19.59-.61,1.25-.19,1.9.08.26.16.61.14.87.27.19.05.5.14.63.03.18-.57.27-1.98.11-2.56.13-1.91.1-3.85-.16-5.75-.02-.47.47-.61.9-.6.24.02.46-.04.68-.03.36-.02.63.39.94.6.63.21,1.18.36,1.09,1.14,0,.24.02.47.02.71,0,.22.25.29.19.43-.05.09-.15.13-.13.32.06.71,0,1.37,0,2.07-.13.64.01,1.27-.14,1.93-.05.34.19.37,0,.75-.03.75,0,.8.77.67.66-.18,1.32-.19,1.99-.31.25-.01.31.04.44-.11.1-.11.31-.09.42-.2.12-.08.19-.29.35-.33.48-.12,1.17-.07,1.25.55.13.48.06.81-.15,1.2,0,.46-.16,1.03-.54,1.39-.46.48-1.17.32-1.74.51-.17.06-.25.2-.32.2-.06-.02-.15-.11-.32-.07-.63.17-1.45.19-2.02.43-.23.76.16,1.66.07,2.45.06.62.21,1.31.06,1.89.31.65.07,1.74.34,2.47.1.42.12.88.27,1.24.29.36.89.7,1.39.85.45.08.85.14,1.31.14.29.05.48.23.82.18.67.16,1.27-.07,1.93.03.58.04.78.48.95.97,1.04,1,.04,2.31-1.16,2.19ZM77.69,47.66c-.06-.5-.47-1.26-.35-1.73l.03-.11c.09-.17.15-.63.32-.86.19-.22.18-.57.34-.83.4-.43,1.02-.62,1.52-.92.84-.39,1.8-.61,2.72-.66.19,0,.32.11.42.19.08.07.21.01.38.04.34.15.72.31,1.08.4.48.18,1.26.92,1.68.86.11-.72.09-1.51.15-2.21-.18-.92-.23-2.12-.55-3.03-.1-.16-.38-.02-.31-.17.05-.1.25-.18.21-.25-.04-.05-.25-.09-.25-.18.24-.58-.12-.91-.46-1.38-.39-.57-1-1.05-1.7-1.1-1.02-.31-2.42-.35-3.05.66-.31.32-.52.91-.88,1.2-.18.18-.36.08-.66.03-.55,0-.99-.49-1.15-.97-.02-.32-.3-.52-.44-.79-.05-.54.22-1.07.61-1.42.57-.63,1.18-1.52,2.02-1.74,1.29-.13,2.73-.72,3.97-.08.17.09.46,0,.73.09,2.82.72,4.26,3.66,4.98,6.27.34,2.44.43,5.05-.11,7.46.09.28.4.5.6.75.71.8,1.68,1.51,2,2.56-.02.13-.12.22-.17.34-.1.8-1.53.97-2.2.91-.72-.22-1.02-.99-1.59-1.45-.18-.16-.35-.42-.54-.31-.58.49-1.1,1.01-1.82,1.36-1.62,1.12-3.95,1.11-5.64.1-.73-.74-1.4-1.58-1.7-2.58-.14-.2-.27-.22-.2-.45ZM96.27,83.55c-.1.3-.05.54-.13.61-.14.09-.17.26-.2.41,0,1.1.68,2.43-.05,3.35-.37.24-.94.37-1.38.3-.27-.09-.4-.22-.71-.24-.24-.03-.5-.06-.68-.19-.53-.39-.24-1.54-.68-1.93l-.12.02c-2.06.68-4.47.97-6.59,1-1.13-.32-2.19-.89-3.17-1.44-.99-.61-1.98-1.56-2.28-2.71-.14-.54-.44-.99-.5-1.59-.04-1.27-.11-2.32-.15-3.58-.05-1.35.18-2.84-.02-4.15-.4-.5-.48-.77-.18-1.42.14-.36.56-.43.85-.67.28-.26.61-.52,1.01-.48.63.02,1.43.23,1.65.84.17.69.14,1.45.17,2.16.03.42.2.47.09.73-.18,1.03-.02,2.33-.09,3.41-.09,1,.1,2.21.15,3.19.09.61.58.99,1.02,1.39.61.53,1.26.84,2.05.93.53.16.81.34,1.16-.03.7.21,1.42-.06,2.23-.07.66-.29,1.79-.29,2.25-.9-.36-3.39-1.72-6.72-2.74-9.97-.23-.64-.59-1.35-.84-1.96-.24-.27-.6-.59-.49-1.01.14-.45.56-.66,1.02-.8.31-.01.6.11.9.12.48-.02.84-.16,1.29.1.54.3.67.91,1.07,1.27.05.59.35,1.17.49,1.77.42.98.54,2.24,1.24,2.97-.19.91.45,1.96.61,2.9.26.72.57,1.52.56,2.3.03.4.29.89.38,1.34.09.25.39.25.58.45.44.38.37,1.05.23,1.57ZM107.79,87.47c-1.7.64-4.13.22-5.51-.92-.17-.08-.43-.08-.6-.22-.15-.15-.15-.31-.38-.33-.63-.22-1.11-.86-1.33-1.49-.02-.44-.27-.56-.22-.92-.26-1.38,1.8-2.12,2.7-1.3.41.05.42.48.49.79.05.17.24.28.38.4,1.71,1.24,3.55,1.78,5.15.08.19-.24.79-.41.56-.73l-.06-.07c-.03-.09-.13-.3-.23-.37-.19-.32-.07-.25-.43-.38-.15-.22-.2-.38-.49-.63-1.82-2.11-4.79-2.96-6.44-5.23-.47-.82-1.06-1.67-1.37-2.59-.2-1.01-.29-2.58,0-3.58.46-.51,1-1.11,1.53-1.48.13-.03.24-.04.4-.16,1.05-.47,2.26-.27,3.37-.04,1.13.32,2.41.68,3.28,1.48.17.13.42.2.59.36.16.16.37,0,.45.14.02.1-.05.27.06.4.51.59,1.02,1.2,1.39,1.87.13.55.11,1.1-.25,1.58-.4.36-.93.65-1.54.47-.26-.04-.45-.19-.68-.27-.18-.05-.36-.05-.47-.16-.19-.18-.18-.35-.23-.49-.09-.16-.31-.34-.4-.51-.11-.18-.32-.27-.4-.38-.07-.12-.27-.15-.38-.32-.1-.13-.19-.29-.33-.35-.84-.22-1.94-.97-2.73-.73-.68-.1-.55.47-.49.96.5,2.88,3.61,3.99,5.64,5.6.91.88,2.07,2,2.79,3.06.04.23.11.16.26.29.12.17.24.32.37.5,1.43,2.68-2.22,5.03-4.45,5.68ZM120.21,50.07c-.1.8-1.53.97-2.2.91-.72-.22-1.02-.99-1.59-1.45-.18-.16-.35-.42-.54-.31-.58.49-1.1,1.01-1.82,1.36-1.62,1.12-3.95,1.11-5.64.1-.73-.74-1.4-1.58-1.7-2.58-.14-.2-.27-.22-.2-.45-.06-.5-.47-1.26-.35-1.73l.03-.11c.09-.17.15-.63.32-.86.19-.22.18-.57.34-.83.4-.43,1.02-.62,1.52-.92.84-.39,1.8-.61,2.72-.66.19,0,.32.11.42.19.08.07.21.01.38.04.34.15.72.31,1.08.4.48.18,1.26.92,1.68.86.11-.72.09-1.51.15-2.21-.18-.92-.23-2.12-.55-3.03-.1-.16-.38-.02-.31-.17.05-.1.25-.18.21-.25-.04-.05-.25-.09-.25-.18.24-.58-.12-.91-.46-1.38-.39-.57-1-1.05-1.7-1.1-1.02-.31-2.42-.35-3.05.66-.31.32-.52.91-.88,1.2-.18.18-.36.08-.66.03-.55,0-.99-.49-1.15-.97-.02-.32-.3-.52-.44-.79-.05-.54.22-1.07.61-1.42.57-.63,1.18-1.52,2.02-1.74,1.29-.13,2.73-.72,3.97-.08.17.09.46,0,.73.09,2.82.72,4.26,3.66,4.98,6.27.34,2.44.43,5.05-.11,7.46.09.28.4.5.6.75.71.8,1.68,1.51,2,2.56-.02.13-.12.22-.17.34ZM201.05,64.57c.44.68.14,1.66-.54,2.05-1.7.99-3.53.27-5.06-.66-.18-.11-.37-.22-.55-.33-.08-.05-.17-.09-.25-.13-.03-.02-.05-.03-.07-.04-.06-.02-.13-.04-.2-.07,0,0,0,0-.01,0-.08.02-.11.02-.06,0,0,0,0,0,0,0-.06.02-.12.03-.18.05-.03,0-.06.02-.08.02-.07.03-.13.06-.2.09-.17.08-.34.18-.5.27-.16.09-.3.2-.45.3-.02.01-.03.03-.05.04-.07.06-.14.12-.21.19-.62.56-1.5.57-2.12,0-.58-.53-.58-1.59,0-2.12.66-.6,1.39-1.1,2.21-1.45,1.02-.44,1.98-.51,3.01-.08.77.32,1.52.78,2.23,1.22.01,0,0,0,.01.01,0,0,0,0,0,0,.08.03.16.06.25.08.08.02.18.04.26.07,0,0,0,0,.01,0,.1,0,.2,0,.3,0,0,0,0,0,0,0,.04-.01.08-.03.13-.04.01,0,.04-.02.07-.04.72-.42,1.61-.14,2.05.54ZM170.58,30.91c.46-.33.96-.45,1.5-.3.52-.03.68-.06,1.08.24.36.36.44,1.13.68,1.53.24,1.09.39,2.22.56,3.33.05.03.14.1.19.14.31-.38.57-.77,1.05-1.03.3-.4.61-.5,1.06-.71.2-.07-.05-.47.14-.43.14.05.28.2.43.09.29-.19.61-.39.94-.4.22-.03.49-.22.71-.25.45,0,.87,0,1.29.23.9.3,1.66,1.11,2.28,1.8.43.87.19,2.1-.95,2.18-.33.25-.61.4-1.02.09-.53-.38-.94-1.01-1.56-1.19-.36.15-1.28.43-1.52.76-.43.58-1.2,1.08-1.4,1.82-.08.56.25,1.09.34,1.61,0,.23-.17.49-.11.65.06.23-.15.31-.31.29-.09.1-.48.12-.59.24-.09.15-.03.55,0,.86.09.46-.03,1.01.19,1.42-.1,1.7.25,3.48.48,5.2.18.73.21,1.48.45,2.16.01.16.02.36-.07.47-.26.2-.35.48-.72.59-.33.14-.8.02-1.04-.17l-.1-.03c-.29,0-.63.34-.92.02-.84-.12-.89-1.61-1.04-2.32-.5-3.76-.51-7.46-1.14-11.2-.23-2.33-.67-4.74-1.32-7,.02-.31.08-.59.42-.68ZM133.22,36.04c.1-.07.31-.08.44-.19.57-.6,1.27-.19,1.9.08.26.16.61.14.87.27.19.05.5.14.63.03.18-.56.27-1.99.11-2.56.13-1.91.1-3.85-.16-5.75-.02-.48.47-.61.9-.6.24.02.46-.04.68-.03.36-.02.63.39.94.6.63.21,1.18.36,1.09,1.15,0,.24.02.47.02.71,0,.22.25.29.19.43-.05.09-.15.13-.13.32.06.71,0,1.37,0,2.07-.13.64.01,1.27-.14,1.93-.05.34.19.37,0,.75-.03.75,0,.8.77.67.66-.18,1.32-.19,1.99-.31.25-.01.31.04.44-.11.1-.11.31-.09.42-.2.12-.08.19-.29.35-.33,1.01-.27,1.39.34,1.31,1.28-.32.61-.19,1.51-.88,1.99-.53.38-1.45.15-1.92.58-.39-.2-.99.12-1.45.14-.29.08-.69.06-.9.21-.23.76.16,1.66.07,2.45.06.62.21,1.31.06,1.89.31.66.07,1.74.34,2.48.1.41.12.86.27,1.23.29.36.89.7,1.39.85.45.08.85.14,1.31.14.29.05.48.22.82.18.67.16,1.27-.07,1.93.03.58.04.78.48.95.97,1.04,1,.04,2.31-1.16,2.19l-.09-.02c-.54-.15-1.38.09-2-.07-1.91-.21-3.83-.56-5.4-1.68-.16-.15-.12-.27-.38-.42-.19-.13-.15-.38-.26-.51-.62-.5-.54-1.59-.73-2.33-.13-.66-.05-1.44-.33-2.06-.06-.17.05-.32.07-.45.08-.22-.2-.24-.33-.36-.09-.17.29-.19.25-.44-.02-1.25-.11-2.6-.39-3.76-.13-.15-.44-.1-.68-.13-1-.24-1.96-.55-2.84-1.15-.46-.35-1-.55-1.02-1.16.04-.41.42-.67.66-.96ZM127.71,51.14l-.09-.06c-.09-.07-.46-.16-.6-.25-.25-.27-.35-.69-.64-.97-.13-.32-.5-.53-.66-.9-.13-.49-.36-.97-.49-1.45-.07-.74-.05-1.65-.19-2.35-.03-1.22-.28-2.8-.41-4.05.04-.19-.22-.18-.25-.3-.04-.08.15-.07.22-.13,0-.06,0-.19.01-.26-.21-1.98-.29-3.95-.5-5.95-.42-2.5-.02-5.04-.23-7.56-.07-.31-.47-.41-.34-.77.06-.35.17-.81.53-.9.65-.14,1.01-.29,1.56.18.47.18,1.17.19,1.47.59.04.14.09.3.22.54.19.47.09,1.02.07,1.5.09.57-.03,1.17-.01,1.74.04,1.16.1,2.27.12,3.43.11,1.93.33,3.83.59,5.73.11,2.11.28,4.14.66,6.26.03,1.5.18,2.97.32,4.47,0,.29-.14.53-.2.8-.07.4-.89.85-1.17.65ZM135.98,87.47c-1.7.64-4.13.22-5.51-.92-.17-.08-.43-.08-.6-.22-.15-.15-.15-.31-.38-.33-.63-.22-1.11-.86-1.33-1.49-.02-.44-.27-.56-.22-.92-.26-1.38,1.8-2.12,2.7-1.3.41.05.42.48.49.79.05.17.24.28.38.4,1.71,1.24,3.55,1.78,5.15.08.19-.24.79-.41.56-.73l-.06-.07c-.03-.09-.13-.3-.23-.37-.19-.32-.07-.25-.43-.38-.15-.22-.2-.38-.49-.63-1.82-2.11-4.79-2.96-6.44-5.23-.47-.82-1.06-1.67-1.37-2.59-.2-1.01-.29-2.58,0-3.58.46-.51,1-1.11,1.53-1.48.13-.03.24-.04.4-.16,1.05-.47,2.26-.27,3.37-.04,1.13.32,2.41.68,3.28,1.48.17.13.42.2.59.36.16.16.37,0,.45.14.02.1-.05.27.06.4.51.59,1.02,1.2,1.39,1.87.13.55.11,1.1-.25,1.58-.4.36-.93.65-1.54.47-.26-.04-.45-.19-.68-.27-.18-.05-.36-.05-.47-.16-.19-.18-.18-.35-.23-.49-.09-.16-.31-.34-.4-.51-.11-.18-.32-.27-.4-.38-.07-.12-.27-.15-.38-.32-.1-.13-.19-.29-.33-.35-.84-.22-1.94-.97-2.73-.73-.68-.1-.55.47-.49.96.5,2.88,3.61,3.99,5.64,5.6.91.88,2.07,2,2.79,3.06.04.23.11.16.26.29.12.17.24.32.37.5,1.43,2.68-2.22,5.03-4.45,5.68ZM160.94,83.55c-.1.3-.05.54-.13.61-.14.09-.17.26-.2.41,0,1.1.68,2.43-.05,3.35-.37.24-.94.37-1.38.3-.27-.09-.4-.22-.71-.24-.24-.03-.5-.06-.68-.19-.53-.39-.24-1.54-.68-1.93l-.12.02c-2.06.68-4.47.97-6.59,1-1.13-.32-2.19-.89-3.17-1.44-.99-.61-1.98-1.56-2.28-2.71-.14-.54-.44-.99-.5-1.59-.04-1.27-.11-2.32-.15-3.58-.05-1.35.18-2.84-.02-4.15-.4-.5-.48-.77-.18-1.42.14-.36.56-.43.85-.67.28-.26.61-.52,1.01-.48.63.02,1.43.23,1.65.84.17.69.14,1.45.17,2.16.03.42.2.47.09.73-.18,1.03-.02,2.33-.09,3.41-.09,1,.1,2.21.15,3.19.09.61.58.99,1.02,1.39.61.53,1.26.84,2.05.93.53.16.81.34,1.16-.03.7.21,1.42-.06,2.23-.07.66-.29,1.79-.29,2.25-.9-.36-3.39-1.72-6.72-2.74-9.97-.23-.64-.59-1.35-.84-1.96-.24-.27-.6-.59-.49-1.01.14-.45.56-.66,1.02-.8.31-.01.6.11.9.12.48-.02.84-.16,1.29.1.54.3.67.91,1.07,1.27.05.59.35,1.17.49,1.77.42.98.54,2.24,1.24,2.97-.19.91.45,1.96.61,2.9.26.72.57,1.52.56,2.3.03.4.29.89.38,1.34.09.25.39.25.58.45.44.38.37,1.05.23,1.57ZM162.92,49.9c-2.06.68-4.47.97-6.59,1-1.13-.32-2.19-.89-3.17-1.44-.99-.61-1.98-1.56-2.28-2.71-.14-.54-.44-.99-.5-1.59-.04-1.27-.11-2.32-.15-3.58-.05-1.35.18-2.84-.02-4.15-.4-.5-.48-.77-.18-1.42.14-.36.56-.43.85-.67.28-.26.61-.52,1.01-.48.63.02,1.43.23,1.65.84.17.69.13,1.45.17,2.16.03.42.2.47.09.73-.18,1.03-.02,2.33-.09,3.41-.09,1,.1,2.21.15,3.19.09.61.58.99,1.02,1.39.61.53,1.26.84,2.05.93.53.16.81.34,1.16-.03.7.21,1.42-.06,2.23-.07.66-.29,1.79-.29,2.25-.9-.36-3.38-1.72-6.72-2.74-9.97-.23-.64-.59-1.35-.84-1.96-.24-.27-.6-.59-.49-1.01.14-.45.56-.66,1.02-.8.31-.01.6.11.9.12.48-.02.84-.16,1.29.1.51.28.62.81.95,1.14.12.08.14.16.15.34.09.58.36,1.13.52,1.74.4.97.5,2.08,1.18,2.79-.22.81.47,1.94.56,2.75.25.76.64,1.63.61,2.46.04.43.29.88.38,1.34.09.25.39.25.58.45.44.38.37,1.05.23,1.57-.1.3-.05.54-.13.61-.14.09-.17.26-.2.41,0,1.1.68,2.43-.05,3.35-.37.24-.94.37-1.38.3-.27-.09-.4-.22-.7-.24-.24-.03-.5-.06-.68-.19-.53-.39-.24-1.54-.68-1.93l-.12.02ZM185,83.33c-.08.75-.14,1.49-.87,1.78-1.15,1.49-3.46,1.78-5.22,1.8h-.13c-1.03.02-2.16-.5-3.16-.79-1.56-.47-3.24.13-4.84-.01-2.36-.27-4.29-1.7-6.05-3.11-.22-.12-.29-.15-.32-.34-.23-.57-.54-1.19-.55-1.9-.06-.37.11-.79.06-1.08-.19-.54-.99-.76-.79-1.48.09-.76,1.07-.75,1.5-1.22.25-.55.38-1.22.67-1.78.22-.36.59-.81.68-1.25.02-.21-.06-.45-.02-.53.06-.09.35.06.5-.21.29-.57.74-1.04,1.09-1.5,1.17-1.52,3-2.68,4.84-2.93,2.07-.33,3.95.6,5.49,1.89,1.36.72,2.87,2.02,3.68,3.4.37.93.03,1.85-.73,2.38-.98.43-2.63.3-3.45,1-.07.02-.15-.15-.34-.15-1.34.36-2.84.47-4.14.99-1.01-.13-2.23.39-3.27.6-.38.05-.56.14-.86.26-.47.24-1.52.22-1.66.91-.02.47.49.89.77,1.17.5.32.87.64,1.42.84.81.5,1.86,1.16,2.8.68.9.24,2.15-.07,3.12,0,1.1.22,2.08.61,3.18.95,1.73.28,3.72-.42,4.9-1.64.81-.91,1.97.34,1.68,1.26ZM186.15,47.66c-.06-.5-.47-1.26-.35-1.73l.03-.11c.09-.17.15-.63.32-.86.19-.22.18-.57.34-.83.4-.43,1.02-.62,1.52-.92.84-.39,1.8-.61,2.72-.66.19,0,.32.11.42.19.08.07.21.01.38.04.34.15.72.31,1.08.4.48.18,1.26.92,1.68.86.11-.72.09-1.51.15-2.21-.18-.92-.23-2.12-.55-3.03-.1-.16-.38-.02-.31-.17.05-.1.25-.18.21-.25-.04-.05-.25-.09-.25-.18.24-.58-.12-.91-.46-1.38-.39-.57-1-1.05-1.7-1.1-1.02-.31-2.42-.35-3.05.66-.31.32-.52.91-.88,1.2-.18.18-.36.08-.66.03-.55,0-.99-.49-1.15-.97-.02-.32-.3-.52-.44-.79-.05-.54.22-1.07.61-1.42.57-.63,1.18-1.52,2.02-1.74,1.29-.13,2.73-.72,3.97-.08.17.09.46,0,.73.09,2.82.72,4.26,3.66,4.98,6.27.34,2.44.43,5.05-.11,7.46.09.28.4.5.6.75.71.8,1.68,1.51,2,2.56-.02.13-.12.22-.17.34-.1.8-1.53.97-2.2.91-.72-.22-1.02-.99-1.59-1.45-.18-.16-.35-.42-.54-.31-.58.49-1.1,1.01-1.82,1.36-1.62,1.12-3.95,1.11-5.64.1-.73-.74-1.4-1.58-1.7-2.58-.14-.2-.27-.22-.2-.45ZM201.77,79.65l-.02.11c-.28.83-.49,1.97-.88,2.7-.06.1,0,.29-.05.4-.16.27-.41.66-.56.94-.18.73-.69,1.17-1.15,1.65-.89.52-1.94.4-2.81-.13-.28-.19-.55-.6-.67-.84-.03-.2.15-.6.26-.81.13-.15.36-.13.44-.26.88-.5,1.08-1.75,1.53-2.6.4-1.57,1.13-3.53.93-5.2-.03-.17.08-.31.11-.42.03-.15-.21-.18-.26-.32-.06-.11.02-.21.02-.37-.02-.19-.31-.34-.37-.59-.28-.57-.85-1.07-1.48-1.23-.66-.52-1.54,0-2.2.18-.22.05.1.48-.08.45-.1,0-.25-.17-.38-.17-.18-.03-.38.18-.56.26-.33.11-.54.38-.81.6-.67.89-1.64,1.74-1.67,2.95-.02.26.16.45.21.69.07.23.06.49.16.69.2.26.32.64.32.96.06.23-.06.3-.2.34-.11.05-.12.22-.21.31-.1.09-.25.16-.24.34.05,2.16.37,4.32.19,6.48-.26,1.13-2.12.84-2.79.26-.15-.1-.44-.09-.52-.33-.19-.99.02-1.92-.07-2.93-.21-2.06-.27-4.23-.37-6.31-.04-2.31-.07-4.57-.12-6.9.01-.23.03-.48.12-.68.16-.31.6-.39.9-.5.26-.22.59-.3.93-.27.32-.03.71-.1,1.01.05.2.12.2.44.26.66.11.22.2.43.15.69.04.21-.08,1.17.17,1.13.17-.08.35-.34.57-.46,1.7-1.08,3.84-2.19,5.89-1.56.3.06.59.13.86.14.1.1.2.35.35.37.76.16,1.4.88,2.04,1.33.38.23.38.61.58.91.23.21.49.54.56.87.53.97.47,2.23.52,3.29-.07,1-.37,2.17-.57,3.12ZM219.88,82.61c-.32.84-.64,1.69-1,2.46-1.05,1.18-2.53,2.15-4.16,2.06-.63.21-1.52.22-2.14.19l-.11-.02c-.62-.23-1.53-.38-2.17-.66-.81-.32-1.52-.98-2.21-1.39,0-.2-.05-.52-.15-.73-1.81-1.94-.85-5-1.03-7.39.07-.47.03-1.09.34-1.43.07-.11-.06-.19-.09-.28-.03-.22.11-.59.19-.87.23-1.33,1.07-3.05,2-4,.18-.16.34-.41.46-.56.2-.16.4-.22.58-.41.69-.39,1.49-.71,2.25-.47.26-.17.78-.08,1.09,0,.14.02.29-.07.38.03.12.36.67.42.96.67,1.15.97,2.45,1.8,3.32,3.04.3.29.31.76.48,1.13.23.34.26.74.39,1.12,0,.26.27.37.28.67.03.17.2.29.15.43-.1.51.22,1.02.23,1.52.45,1.55.7,3.4-.05,4.87ZM232.26,87.47c-1.7.64-4.13.22-5.51-.92-.17-.08-.43-.08-.6-.22-.15-.15-.15-.31-.38-.33-.63-.22-1.11-.86-1.33-1.49-.02-.44-.27-.56-.22-.92-.26-1.38,1.8-2.12,2.7-1.3.41.05.42.48.49.79.05.17.24.28.38.4,1.71,1.24,3.55,1.78,5.15.08.19-.24.79-.41.56-.73l-.06-.07c-.03-.09-.13-.3-.23-.37-.19-.32-.07-.25-.43-.38-.15-.22-.2-.38-.49-.63-1.82-2.11-4.79-2.96-6.44-5.23-.47-.82-1.06-1.67-1.37-2.59-.2-1.01-.29-2.58,0-3.58.46-.51,1-1.11,1.53-1.48.13-.03.24-.04.4-.16,1.05-.47,2.26-.27,3.37-.04,1.13.32,2.41.68,3.28,1.48.17.13.42.2.59.36.16.16.37,0,.45.14.02.1-.05.27.06.4.51.59,1.02,1.2,1.39,1.87.13.55.11,1.1-.25,1.58-.4.36-.93.65-1.54.47-.26-.04-.45-.19-.68-.27-.18-.05-.36-.05-.47-.16-.19-.18-.18-.35-.23-.49-.09-.16-.31-.34-.4-.51-.11-.18-.32-.27-.4-.38-.07-.12-.27-.15-.38-.32-.1-.13-.19-.29-.33-.35-.84-.22-1.94-.97-2.73-.73-.68-.1-.55.47-.49.96.5,2.88,3.61,3.99,5.64,5.6.91.88,2.07,2,2.79,3.06.04.23.11.16.26.29.12.17.24.32.37.5,1.43,2.68-2.22,5.03-4.45,5.68Z"/>
      <path class="cls-1" d="M170.49,75.55l.14.11.11-.04.04-.11c.38-.05.78-.22,1.16-.25.24-.14.77-.17,1.06-.18.27-.13.63-.03.84-.28,1.08-.25,2.24-.34,3.27-.74l.04-.14c-.11-.18-.32-.34-.53-.39-.14-.19-.42-.35-.63-.46v-.25l-.07-.04-.14.04-.18-.07-.11-.18h-.18c-.17-.13-.44-.21-.56-.39-.16-.1-.43-.15-.56-.28-.36.01-.81-.11-1.16,0-.54-.04-1.16.16-1.62.46-.21.21-.57.27-.74.53-.42.33-.79.77-1.06,1.23-.09.16-.32.26-.35.46l-.07.04c-.15.33-.12.52-.56.92-.07.22-.19.5-.28.7l.67-.25c.51-.08.97-.43,1.48-.46Z"/>
      <path class="cls-1" d="M219.47,42.52c.91,1.92.93,4.13.06,6.07l-.7,1.56c-.24.53.31,1.07.84.82l1.54-.73c1.92-.91,4.13-.93,6.07-.06l1.56.7c.53.24,1.07-.31.82-.84l-.73-1.54c-.91-1.92-.93-4.13-.06-6.07l.7-1.56c.24-.53-.31-1.07-.84-.82l-1.54.73c-1.92.91-4.13.93-6.07.06l-1.56-.7c-.53-.24-1.07.31-.82.84l.73,1.54Z"/>
      <path class="cls-1" d="M89.31,8.14l1.6.58c2,.72,3.58,2.27,4.34,4.25l.61,1.59c.21.54.98.54,1.18-.01l.58-1.6c.72-2,2.27-3.58,4.25-4.34l1.59-.61c.54-.21.54-.98-.01-1.18l-1.6-.58c-2-.72-3.58-2.27-4.34-4.25l-.61-1.59c-.21-.54-.98-.54-1.18.01l-.58,1.6c-.72,2-2.27,3.58-4.25,4.34l-1.59.61c-.54.21-.54.98.01,1.18Z"/>
    </g>
  </g>
</svg>