<?xml version="1.0" encoding="UTF-8"?>
<svg id="Capa_2" data-name="Capa 2" xmlns="http://www.w3.org/2000/svg" viewBox="0 0 259.61 669.15">
  <defs>
    <style>
      .cls-1 {
        fill: #f7f1e5;
      }
    </style>
  </defs>
  <g id="Capa_1-2" data-name="Capa 1">
    <g>
      <path class="cls-1" d="M226.6,428.98c-2.04-11.36-1.49-24.14-13.09-18.26-4.53,2.33-114.41,122.43-120.61,128.58-50.53-9.86-78.65-42.16-54.46-85.39,26.92,14.52,67.84,19.33,90.04-10.57,14.07-50.61-71.08-46.44-93-17.16-25.88-40.43,7.42-89.38,36.61-125.79,1.18-1.47,3.09-2.15,4.94-1.8,11.17,2.15,19.92-5.57,17.28-16-1.22-4.84,1.87-9.69,6.73-10.88C235.8,238.82,324.06,80.49,159.79,4.59-15.4-32.48-38.93,164.29,52.19,258.61c3.26,3.37,3.24,8.59.26,12.21-4.18,5.07-4.41,11.68-.32,16.64,1.57,1.9,1.47,4.69-.17,6.53-31.98,35.76-65.28,114.33-28.77,147.54-31.73,50.62-1.84,102.63,54.98,113.64-2.08,2.49-38.21,39.97-37.97,42.22-2.64,7.09,17.72,8.99,21.55,11.33,13.84,7.22,42.15-38.44,51.55-44.8,3.94.85,7.87,1.69,11.76,2.51,67.81,15.44,98.68,17.17,99.02,83.01,1.61,8.21,1.99,10.93,9.7,13.52,4.43.15,23.83,11.04,25.74,3.58,2.01-5.17-33.05-231.92-32.92-237.56ZM77.97,424.23c71.41-2.25,11.97,37.48-27.36,14.43,7.95-7.37,17.32-12.33,27.36-14.43ZM20.62,92.43C63.11-39.9,264.54,23.58,223.41,156.38c-19.4,57.73-87.63,81.01-135.87,98.09-5.81,2.06-12.27.14-16.03-4.73C43.38,213.32,1.39,154.42,20.62,92.43ZM129.01,547.53c-.21-.04-.42-.09-.63-.13l72.24-79.15,13.89,107.16c-22.56-14.54-55.08-21.43-85.49-27.87Z"/>
      <path class="cls-1" d="M182.35,346.34c-6.43-2.38-11.5-7.45-13.88-13.88l-3.73-10.07c-.65-1.77-3.16-1.77-3.81,0l-3.73,10.07c-2.38,6.43-7.45,11.5-13.88,13.88l-10.07,3.73c-1.77.65-1.77,3.16,0,3.81l10.07,3.73c6.43,2.38,11.5,7.45,13.88,13.88l3.73,10.07c.65,1.77,3.16,1.77,3.81,0l3.73-10.07c2.38-6.43,7.45-11.5,13.88-13.88l10.07-3.73c1.77-.65,1.77-3.16,0-3.81l-10.07-3.73Z"/>
    </g>
  </g>
</svg>